<svg width="20" height="20" viewBox="0 0 20 20" fill="none" xmlns="http://www.w3.org/2000/svg">
<g clip-path="url(#clip0_2778_1543)">
<path d="M5.52079 2.29102C5.09673 2.29102 4.67682 2.37454 4.28504 2.53682C3.89326 2.6991 3.53728 2.93696 3.23743 3.23682C2.93757 3.53667 2.69971 3.89265 2.53743 4.28443C2.37515 4.67621 2.29163 5.09612 2.29163 5.52018C2.29163 5.94424 2.37515 6.36415 2.53743 6.75593C2.69971 7.14771 2.93757 7.50369 3.23743 7.80355C3.53728 8.1034 3.89326 8.34126 4.28504 8.50354C4.67682 8.66582 5.09673 8.74935 5.52079 8.74935C6.37722 8.74935 7.19857 8.40913 7.80416 7.80355C8.40974 7.19796 8.74996 6.37661 8.74996 5.52018C8.74996 4.66375 8.40974 3.8424 7.80416 3.23682C7.19857 2.63123 6.37722 2.29102 5.52079 2.29102ZM14.4791 2.29102C14.0551 2.29102 13.6352 2.37454 13.2434 2.53682C12.8516 2.6991 12.4956 2.93696 12.1958 3.23682C11.8959 3.53667 11.658 3.89265 11.4958 4.28443C11.3335 4.67621 11.25 5.09612 11.25 5.52018C11.25 5.94424 11.3335 6.36415 11.4958 6.75593C11.658 7.14771 11.8959 7.50369 12.1958 7.80355C12.4956 8.1034 12.8516 8.34126 13.2434 8.50354C13.6352 8.66582 14.0551 8.74935 14.4791 8.74935C15.3356 8.74935 16.1569 8.40913 16.7625 7.80355C17.3681 7.19796 17.7083 6.37661 17.7083 5.52018C17.7083 4.66375 17.3681 3.8424 16.7625 3.23682C16.1569 2.63123 15.3356 2.29102 14.4791 2.29102ZM5.52079 11.2493C5.09673 11.2493 4.67682 11.3329 4.28504 11.4952C3.89326 11.6574 3.53728 11.8953 3.23743 12.1952C2.93757 12.495 2.69971 12.851 2.53743 13.2428C2.37515 13.6345 2.29163 14.0545 2.29163 14.4785C2.29163 14.9026 2.37515 15.3225 2.53743 15.7143C2.69971 16.106 2.93757 16.462 3.23743 16.7619C3.53728 17.0617 3.89326 17.2996 4.28504 17.4619C4.67682 17.6242 5.09673 17.7077 5.52079 17.7077C6.37722 17.7077 7.19857 17.3675 7.80416 16.7619C8.40974 16.1563 8.74996 15.3349 8.74996 14.4785C8.74996 13.6221 8.40974 12.8007 7.80416 12.1952C7.19857 11.5896 6.37722 11.2493 5.52079 11.2493ZM14.4791 11.2493C14.0551 11.2493 13.6352 11.3329 13.2434 11.4952C12.8516 11.6574 12.4956 11.8953 12.1958 12.1952C11.8959 12.495 11.658 12.851 11.4958 13.2428C11.3335 13.6345 11.25 14.0545 11.25 14.4785C11.25 14.9026 11.3335 15.3225 11.4958 15.7143C11.658 16.106 11.8959 16.462 12.1958 16.7619C12.4956 17.0617 12.8516 17.2996 13.2434 17.4619C13.6352 17.6242 14.0551 17.7077 14.4791 17.7077C15.3356 17.7077 16.1569 17.3675 16.7625 16.7619C17.3681 16.1563 17.7083 15.3349 17.7083 14.4785C17.7083 13.6221 17.3681 12.8007 16.7625 12.1952C16.1569 11.5896 15.3356 11.2493 14.4791 11.2493Z" stroke="#0079FF" stroke-width="1.5" stroke-linecap="round" stroke-linejoin="round"/>
</g>
<defs>
<clipPath id="clip0_2778_1543">
<rect width="20" height="20" fill="white"/>
</clipPath>
</defs>
</svg>
