<svg width="20" height="20" viewBox="0 0 20 20" fill="none" xmlns="http://www.w3.org/2000/svg">
<g clip-path="url(#clip0_2778_1650)">
<path fill-rule="evenodd" clip-rule="evenodd" d="M6.25002 3.95833C6.25002 3.77625 8.13168 2.5 10 2.5C11.8683 2.5 13.75 3.77625 13.75 3.95833C13.75 4.60833 13.6808 4.99333 13.6225 5.20292C13.5838 5.34042 13.455 5.41667 13.3121 5.41667H6.68793C6.54502 5.41667 6.41627 5.34042 6.37752 5.20292C6.31918 4.99333 6.25002 4.60833 6.25002 3.95833ZM9.37501 3.75C9.26451 3.75 9.15853 3.7939 9.08039 3.87204C9.00225 3.95018 8.95835 4.05616 8.95835 4.16667C8.95835 4.27717 9.00225 4.38315 9.08039 4.46129C9.15853 4.53943 9.26451 4.58333 9.37501 4.58333H10.625C10.7355 4.58333 10.8415 4.53943 10.9196 4.46129C10.9978 4.38315 11.0417 4.27717 11.0417 4.16667C11.0417 4.05616 10.9978 3.95018 10.9196 3.87204C10.8415 3.7939 10.7355 3.75 10.625 3.75H9.37501ZM6.68252 8.0075C5.29502 7.57833 5.64502 6.81167 6.17418 6.25H13.9417C14.365 6.79083 14.5921 7.52042 13.3125 7.95708C13.3264 8.08069 13.3333 8.20611 13.3333 8.33333C13.3332 8.78469 13.2413 9.23132 13.0634 9.64612C12.8854 10.0609 12.6251 10.4353 12.2982 10.7465C11.9712 11.0577 11.5845 11.2992 11.1614 11.4565C10.7383 11.6137 10.2877 11.6834 9.83691 11.6613C9.38609 11.6393 8.94445 11.5258 8.53877 11.328C8.13309 11.1301 7.77182 10.8519 7.47686 10.5103C7.18191 10.1686 6.95941 9.77061 6.82287 9.34039C6.68632 8.91018 6.63857 8.45672 6.68252 8.0075ZM9.88668 8.33333C10.9875 8.33333 11.8408 8.275 12.495 8.17333C12.4983 8.22611 12.5 8.27944 12.5 8.33333C12.4997 8.66698 12.4326 8.99719 12.3027 9.3045C12.1728 9.61182 11.9827 9.89002 11.7436 10.1227C11.5045 10.3554 11.2213 10.5379 10.9105 10.6594C10.5998 10.7809 10.2679 10.839 9.93437 10.8303C9.60084 10.8215 9.27244 10.7461 8.96852 10.6084C8.6646 10.4707 8.39131 10.2736 8.16475 10.0287C7.9382 9.78378 7.76296 9.49598 7.64937 9.18227C7.53578 8.86856 7.48613 8.53528 7.50335 8.20208C8.11293 8.28625 8.89418 8.33333 9.88668 8.33333ZM13.5071 14.4167C13.1303 13.8286 12.6115 13.3448 11.9986 13.0099C11.3858 12.6749 10.6984 12.4996 10 12.5C9.30129 12.4995 8.61368 12.6748 8.00055 13.01C7.38743 13.3451 6.86853 13.8291 6.49168 14.4175C6.35151 14.2023 6.13679 14.0465 5.88877 13.98L5.08377 13.7646C4.81695 13.6931 4.53264 13.7304 4.29338 13.8685C4.05412 14.0066 3.8795 14.234 3.80793 14.5008L3.4846 15.7083C3.44919 15.8405 3.44015 15.9783 3.45801 16.1139C3.47587 16.2496 3.52027 16.3804 3.58867 16.4988C3.65708 16.6173 3.74815 16.7211 3.8567 16.8044C3.96524 16.8877 4.08912 16.9488 4.22127 16.9842L5.02585 17.2C5.1612 17.2363 5.30249 17.2448 5.44124 17.2252C5.57999 17.2056 5.71335 17.1582 5.83335 17.0858C5.83368 17.1963 5.8779 17.3022 5.95627 17.3801C6.03465 17.458 6.14076 17.5016 6.25127 17.5012C6.36177 17.5009 6.46762 17.4567 6.54553 17.3783C6.62343 17.3 6.66701 17.1938 6.66668 17.0833V16.6667C6.66668 16.5078 6.67751 16.3518 6.69918 16.1987L8.86751 16.78C8.96817 16.9954 9.12818 17.1777 9.32877 17.3054C9.52937 17.4331 9.76223 17.5009 10 17.5009C10.2378 17.5009 10.4707 17.4331 10.6713 17.3054C10.8719 17.1777 11.0319 16.9954 11.1325 16.78L13.3008 16.1987C13.3222 16.3518 13.3331 16.5078 13.3333 16.6667V17.0833C13.3328 17.1938 13.3762 17.3 13.4539 17.3786C13.5317 17.4571 13.6374 17.5015 13.7479 17.5021C13.8584 17.5026 13.9646 17.4593 14.0432 17.3815C14.1217 17.3038 14.1661 17.198 14.1667 17.0875C14.4 17.2275 14.6883 17.2762 14.9721 17.2L15.7771 16.9846C15.9092 16.9492 16.0331 16.8881 16.1417 16.8048C16.2502 16.7216 16.3413 16.6177 16.4097 16.4992C16.4781 16.3808 16.5225 16.25 16.5404 16.1144C16.5582 15.9787 16.5492 15.8409 16.5138 15.7087L16.19 14.5013C16.1184 14.2344 15.9438 14.007 15.7046 13.8689C15.4653 13.7308 15.181 13.6935 14.9142 13.765L14.1092 13.9804C13.8617 14.0467 13.6474 14.2023 13.5071 14.4167ZM6.91793 15.3942C7.14314 14.8499 7.50836 14.375 7.97649 14.0176C8.44463 13.6602 8.99902 13.433 9.58335 13.3592V15.0712C9.3965 15.1373 9.22803 15.2468 9.09183 15.3907C8.95563 15.5347 8.85561 15.709 8.80002 15.8992L6.91793 15.3942ZM13.0821 15.3942C12.8569 14.8499 12.4917 14.375 12.0235 14.0176C11.5554 13.6602 11.001 13.433 10.4167 13.3592V15.0712C10.7933 15.2046 11.0875 15.5129 11.2 15.8992L13.0821 15.3942ZM10 16.6667C10.1105 16.6667 10.2165 16.6228 10.2946 16.5446C10.3728 16.4665 10.4167 16.3605 10.4167 16.25C10.4167 16.1395 10.3728 16.0335 10.2946 15.9554C10.2165 15.8772 10.1105 15.8333 10 15.8333C9.88951 15.8333 9.78353 15.8772 9.70539 15.9554C9.62725 16.0335 9.58335 16.1395 9.58335 16.25C9.58335 16.3605 9.62725 16.4665 9.70539 16.5446C9.78353 16.6228 9.88951 16.6667 10 16.6667Z" fill="black"/>
</g>
<defs>
<clipPath id="clip0_2778_1650">
<rect width="20" height="20" fill="white"/>
</clipPath>
</defs>
</svg>
