<svg width="20" height="20" viewBox="0 0 20 20" fill="none" xmlns="http://www.w3.org/2000/svg">
<g clip-path="url(#clip0_2778_1549)">
<g clip-path="url(#clip1_2778_1549)">
<path d="M3.33337 18.334C3.33337 16.5659 4.03575 14.8702 5.286 13.6199C6.53624 12.3697 8.23193 11.6673 10 11.6673C11.7682 11.6673 13.4638 12.3697 14.7141 13.6199C15.9643 14.8702 16.6667 16.5659 16.6667 18.334H15C15 17.0079 14.4733 15.7361 13.5356 14.7984C12.5979 13.8608 11.3261 13.334 10 13.334C8.67396 13.334 7.40219 13.8608 6.46451 14.7984C5.52682 15.7361 5.00004 17.0079 5.00004 18.334H3.33337ZM10 10.834C7.23754 10.834 5.00004 8.59648 5.00004 5.83398C5.00004 3.07148 7.23754 0.833984 10 0.833984C12.7625 0.833984 15 3.07148 15 5.83398C15 8.59648 12.7625 10.834 10 10.834ZM10 9.16732C11.8417 9.16732 13.3334 7.67565 13.3334 5.83398C13.3334 3.99232 11.8417 2.50065 10 2.50065C8.15837 2.50065 6.66671 3.99232 6.66671 5.83398C6.66671 7.67565 8.15837 9.16732 10 9.16732Z" fill="black"/>
</g>
</g>
<defs>
<clipPath id="clip0_2778_1549">
<rect width="20" height="20" fill="white"/>
</clipPath>
<clipPath id="clip1_2778_1549">
<rect width="20" height="20" fill="white"/>
</clipPath>
</defs>
</svg>
