<svg width="148" height="28" viewBox="0 0 148 28" fill="none" xmlns="http://www.w3.org/2000/svg">
<g clip-path="url(#clip0_253_61814)">
<path d="M16.3068 8.42778L18.1739 5.05613L15.059 0.558594H0L14.6441 27.4387H17.0329L32.5069 0.558594H28.2509L16.255 22.3287L5.91866 3.93325H13.2926L16.3068 8.42778Z" fill="#131746"/>
<path d="M8.30664 5.36237H12.3582L15.7843 11.7003L22.2246 0.558594H26.1724L16.2541 18.957L8.30664 5.36237Z" fill="#FE9E16"/>
<path d="M34.2724 0.558594L30.1172 8.3257V27.4387H46.5277V22.9412H34.7911V16.1979H45.283V12.1087H34.6874V5.05613H46.5277V0.558594H34.2724Z" fill="#121744"/>
<path d="M60.7125 0C52.8565 0 46.4863 6.26893 46.4863 14C46.4863 21.7311 52.8565 28 60.7125 28C68.5684 28 74.9386 21.7311 74.9386 14C74.9386 6.26893 68.5684 0 60.7125 0ZM60.7125 23.8988C55.1569 23.8988 50.6538 19.4673 50.6538 14C50.6538 8.5327 55.1569 4.10122 60.7125 4.10122C66.2681 4.10122 70.7711 8.5327 70.7711 14C70.7711 19.4673 66.2681 23.8988 60.7125 23.8988Z" fill="#121744"/>
<path d="M98.8357 19.5673C97.0266 22.1823 93.9757 23.8997 90.5191 23.8997C84.9635 23.8997 80.4604 19.4682 80.4604 14.0009C80.4604 8.53361 84.9635 4.10213 90.5191 4.10213C94.0459 4.10213 97.1456 5.88853 98.9425 8.59366L102.442 6.36891C99.9035 2.5379 95.5134 0.00390625 90.5191 0.00390625C82.6632 0.00390625 76.293 6.27283 76.293 14.0039C76.293 21.735 82.6632 28.0039 90.5191 28.0039C95.4432 28.0039 99.7815 25.542 102.335 21.798L98.8357 19.5703V19.5673Z" fill="#FE9E12"/>
<path d="M117.361 0.558594H111.857L101.887 27.4387H107.079L108.949 22.2266H120.375L121.934 27.4387H127.126L117.361 0.558594ZM110.246 17.8312L114.401 6.48525L118.764 17.8312H110.249H110.246Z" fill="#FE9E12"/>
<path d="M144.156 13.4387C144.156 13.4387 147.896 10.8837 146.752 6.48825C146.209 4.39561 144.98 2.95147 143.845 2.01174C142.71 1.072 141.245 0.558594 139.75 0.558594H128.474V27.4387H141.56C141.56 27.4387 147.063 26.2107 148 20.0799C148 20.0799 148.104 15.7866 144.156 13.4357V13.4387ZM132.834 4.85197H139.363C141.264 4.85197 142.804 6.36816 142.804 8.23863V8.77605C142.804 10.6465 141.264 12.1627 139.363 12.1627H132.834V4.85497V4.85197ZM143.793 20.137C143.793 22.0074 142.252 23.5236 140.351 23.5236H132.834V16.2159H140.351C142.252 16.2159 143.793 17.7321 143.793 19.6026V20.14V20.137Z" fill="#FE9E12"/>
</g>
<defs>
<clipPath id="clip0_253_61814">
<rect width="148" height="28" fill="white"/>
</clipPath>
</defs>
</svg>
