<svg width="30" height="30" viewBox="0 0 30 30" fill="none" xmlns="http://www.w3.org/2000/svg">
<circle cx="15" cy="15" r="15" fill="#F5F7FA"/>
<g clip-path="url(#clip0_253_61824)">
<path d="M14.2383 24C12.6881 24 11.4258 22.7385 11.4258 21.1875C11.4258 20.877 11.6778 20.625 11.9883 20.625C12.2988 20.625 12.5508 20.877 12.5508 21.1875C12.5508 22.1183 13.3083 22.875 14.2383 22.875C15.1683 22.875 15.9258 22.1183 15.9258 21.1875C15.9258 20.877 16.1778 20.625 16.4883 20.625C16.7988 20.625 17.0508 20.877 17.0508 21.1875C17.0508 22.7385 15.7886 24 14.2383 24Z" fill="#FE5C73"/>
<path d="M20.4257 21.75H8.05074C7.32701 21.75 6.73828 21.1613 6.73828 20.4375C6.73828 20.0534 6.90555 19.6898 7.19724 19.44C7.21605 19.4235 7.23624 19.4085 7.25725 19.3949C8.35822 18.4342 8.98828 17.052 8.98828 15.5924V13.5C8.98828 10.6051 11.344 8.25 14.2382 8.25C14.3583 8.25 14.488 8.2522 14.6081 8.27252C14.9147 8.32347 15.1218 8.61378 15.0707 8.91975C15.0198 9.22572 14.7242 9.43282 14.4235 9.38173C14.3635 9.37198 14.2976 9.375 14.2382 9.375C11.9643 9.375 10.1133 11.2252 10.1133 13.5V15.5924C10.1133 17.4045 9.31897 19.119 7.93607 20.2957C7.9248 20.3047 7.91505 20.313 7.90297 20.3212C7.88278 20.3468 7.86328 20.3858 7.86328 20.4375C7.86328 20.5394 7.94884 20.625 8.05074 20.625H20.4257C20.5278 20.625 20.6133 20.5394 20.6133 20.4375C20.6133 20.3849 20.5938 20.3468 20.5728 20.3212C20.5616 20.313 20.5518 20.3047 20.5405 20.2957C19.1568 19.1182 18.3633 17.4045 18.3633 15.5924V14.7751C18.3633 14.4646 18.6153 14.2126 18.9258 14.2126C19.2363 14.2126 19.4883 14.4646 19.4883 14.7751V15.5924C19.4883 17.0528 20.1191 18.4357 21.2216 19.3973C21.2417 19.4107 21.2612 19.425 21.2792 19.4408C21.5711 19.6898 21.7383 20.0534 21.7383 20.4375C21.7383 21.1613 21.1496 21.75 20.4257 21.75Z" fill="#FE5C73"/>
<path d="M19.4883 13.5C17.4206 13.5 15.7383 11.8178 15.7383 9.75005C15.7383 7.68228 17.4206 6 19.4883 6C21.5561 6 23.2382 7.68228 23.2382 9.75005C23.2382 11.8178 21.5561 13.5 19.4883 13.5ZM19.4883 7.125C18.0407 7.125 16.8633 8.30246 16.8633 9.75005C16.8633 11.1975 18.0407 12.375 19.4883 12.375C20.9358 12.375 22.1132 11.1975 22.1132 9.75005C22.1132 8.30246 20.9358 7.125 19.4883 7.125Z" fill="#FE5C73"/>
</g>
<defs>
<clipPath id="clip0_253_61824">
<rect width="18" height="18" fill="white" transform="translate(6 6)"/>
</clipPath>
</defs>
</svg>
