<svg width="16" height="16" viewBox="0 0 16 16" fill="none" xmlns="http://www.w3.org/2000/svg">
<path d="M4.64598 4.64689C4.69242 4.60033 4.7476 4.56339 4.80834 4.53818C4.86909 4.51297 4.93421 4.5 4.99998 4.5C5.06575 4.5 5.13087 4.51297 5.19161 4.53818C5.25236 4.56339 5.30753 4.60033 5.35398 4.64689L7.99998 7.29389L10.646 4.64689C10.6925 4.60041 10.7477 4.56353 10.8084 4.53837C10.8691 4.51321 10.9342 4.50026 11 4.50026C11.0657 4.50026 11.1308 4.51321 11.1916 4.53837C11.2523 4.56353 11.3075 4.60041 11.354 4.64689C11.4005 4.69338 11.4373 4.74857 11.4625 4.80931C11.4877 4.87005 11.5006 4.93515 11.5006 5.00089C11.5006 5.06664 11.4877 5.13174 11.4625 5.19248C11.4373 5.25322 11.4005 5.30841 11.354 5.35489L8.70698 8.00089L11.354 10.6469C11.4005 10.6934 11.4373 10.7486 11.4625 10.8093C11.4877 10.87 11.5006 10.9351 11.5006 11.0009C11.5006 11.0666 11.4877 11.1317 11.4625 11.1925C11.4373 11.2532 11.4005 11.3084 11.354 11.3549C11.3075 11.4014 11.2523 11.4383 11.1916 11.4634C11.1308 11.4886 11.0657 11.5015 11 11.5015C10.9342 11.5015 10.8691 11.4886 10.8084 11.4634C10.7477 11.4383 10.6925 11.4014 10.646 11.3549L7.99998 8.70789L5.35398 11.3549C5.30749 11.4014 5.2523 11.4383 5.19156 11.4634C5.13082 11.4886 5.06572 11.5015 4.99998 11.5015C4.93423 11.5015 4.86913 11.4886 4.80839 11.4634C4.74766 11.4383 4.69247 11.4014 4.64598 11.3549C4.59949 11.3084 4.56261 11.2532 4.53745 11.1925C4.5123 11.1317 4.49935 11.0666 4.49935 11.0009C4.49935 10.9351 4.5123 10.87 4.53745 10.8093C4.56261 10.7486 4.59949 10.6934 4.64598 10.6469L7.29298 8.00089L4.64598 5.35489C4.59941 5.30845 4.56247 5.25327 4.53727 5.19253C4.51206 5.13178 4.49908 5.06666 4.49908 5.00089C4.49908 4.93513 4.51206 4.87001 4.53727 4.80926C4.56247 4.74851 4.59941 4.69334 4.64598 4.64689Z" fill="black"/>
</svg>
