<svg width="30" height="30" viewBox="0 0 30 30" fill="none" xmlns="http://www.w3.org/2000/svg">
<circle cx="15" cy="15" r="15" fill="#F5F7FA"/>
<g clip-path="url(#clip0_253_61823)">
<path d="M15.5648 24H14.4351C13.5215 24 12.7781 23.2567 12.7781 22.343V21.9608C12.3896 21.8367 12.0122 21.68 11.6497 21.4924L11.3788 21.7633C10.7229 22.42 9.67207 22.4008 9.03514 21.763L8.23671 20.9646C7.59866 20.3273 7.58031 19.2768 8.23692 18.6209L8.50755 18.3503C8.31993 17.9877 8.1633 17.6104 8.03917 17.2219H7.65702C6.74338 17.2219 6 16.4785 6 15.5649V14.4351C6 13.5215 6.74338 12.7781 7.65705 12.7781H8.0392C8.16334 12.3896 8.31996 12.0123 8.50759 11.6497L8.23675 11.3789C7.58052 10.7234 7.59863 9.67284 8.23696 9.03521L9.03546 8.23675C9.67386 7.59746 10.7244 7.5815 11.3791 8.23696L11.6497 8.50755C12.0123 8.31996 12.3897 8.1633 12.7781 8.03917V7.65702C12.7781 6.74334 13.5215 6 14.4352 6H15.5649C16.4785 6 17.2219 6.74334 17.2219 7.65702V8.0392C17.6103 8.1633 17.9877 8.31996 18.3503 8.50759L18.6211 8.23675C19.2771 7.57996 20.3279 7.59922 20.9648 8.23699L21.7633 9.03539C22.4013 9.67274 22.4197 10.7232 21.763 11.3791L21.4924 11.6497C21.68 12.0123 21.8367 12.3896 21.9608 12.7781H22.3429C23.2566 12.7781 24 13.5215 24 14.4351V15.5649C24 16.4785 23.2566 17.2219 22.3429 17.2219H21.9608C21.8367 17.6104 21.68 17.9877 21.4924 18.3503L21.7633 18.6211C22.4195 19.2767 22.4014 20.3272 21.763 20.9648L20.9645 21.7633C20.3261 22.4026 19.2756 22.4185 18.6209 21.7631L18.3503 21.4925C17.9877 21.6801 17.6103 21.8367 17.2219 21.9609V22.3431C17.2219 23.2567 16.4785 24 15.5648 24ZM11.826 20.3849C12.3297 20.6828 12.8718 20.9078 13.4372 21.0537C13.6701 21.1138 13.8328 21.3238 13.8328 21.5643V22.343C13.8328 22.6751 14.1031 22.9453 14.4352 22.9453H15.5649C15.897 22.9453 16.1672 22.6751 16.1672 22.343V21.5643C16.1672 21.3238 16.3299 21.1138 16.5628 21.0537C17.1283 20.9078 17.6704 20.6828 18.174 20.3849C18.3813 20.2623 18.6451 20.2957 18.8154 20.4659L19.3669 21.0175C19.6047 21.2556 19.9866 21.25 20.2186 21.0177L21.0176 20.2188C21.249 19.9877 21.2567 19.6057 21.0178 19.3671L20.466 18.8153C20.2958 18.6451 20.2624 18.3812 20.385 18.174C20.6828 17.6704 20.9078 17.1283 21.0538 16.5628C21.1139 16.3299 21.3239 16.1672 21.5644 16.1672H22.343C22.6751 16.1672 22.9453 15.897 22.9453 15.5649V14.4352C22.9453 14.1031 22.6751 13.8328 22.343 13.8328H21.5644C21.3239 13.8328 21.1139 13.6701 21.0538 13.4373C20.9078 12.8718 20.6828 12.3297 20.385 11.8261C20.2624 11.6188 20.2958 11.355 20.466 11.1847L21.0176 10.6332C21.256 10.395 21.2498 10.0132 21.0178 9.78151L20.2188 8.98259C19.9873 8.7507 19.6053 8.74391 19.3672 8.98238L18.8154 9.53415C18.6452 9.70441 18.3813 9.73774 18.1741 9.61519C17.6704 9.31731 17.1283 9.09227 16.5628 8.94634C16.33 8.88626 16.1673 8.67623 16.1673 8.43573V7.65702C16.1673 7.3249 15.897 7.05469 15.5649 7.05469H14.4352C14.1031 7.05469 13.8328 7.3249 13.8328 7.65702V8.43566C13.8328 8.67616 13.6701 8.88619 13.4373 8.94627C12.8718 9.0922 12.3297 9.31724 11.826 9.61512C11.6187 9.73764 11.3549 9.70431 11.1847 9.53408L10.6331 8.98252C10.3953 8.74444 10.0134 8.74996 9.78151 8.98227L8.98252 9.78123C8.75112 10.0123 8.74338 10.3942 8.9823 10.6329L9.53408 11.1847C9.70431 11.3549 9.73764 11.6188 9.61512 11.826C9.31724 12.3296 9.09224 12.8717 8.9463 13.4372C8.88619 13.6701 8.67616 13.8328 8.4357 13.8328H7.65705C7.32493 13.8328 7.05469 14.103 7.05469 14.4351V15.5649C7.05469 15.897 7.32493 16.1672 7.65705 16.1672H8.43566C8.67616 16.1672 8.88615 16.3299 8.94627 16.5627C9.0922 17.1282 9.31724 17.6703 9.61508 18.174C9.7376 18.3812 9.70427 18.6451 9.53405 18.8153L8.98248 19.3669C8.74405 19.605 8.75027 19.9868 8.98227 20.2185L9.7812 21.0174C10.0128 21.2493 10.3947 21.2561 10.6329 21.0177L11.1846 20.4659C11.31 20.3405 11.571 20.2341 11.826 20.3849Z" fill="#718EBF"/>
<path d="M14.9999 18.9168C12.8404 18.9168 11.0835 17.1599 11.0835 15.0004C11.0835 12.8409 12.8404 11.084 14.9999 11.084C17.1594 11.084 18.9163 12.8409 18.9163 15.0004C18.9163 17.1599 17.1594 18.9168 14.9999 18.9168ZM14.9999 12.1387C13.4219 12.1387 12.1382 13.4224 12.1382 15.0004C12.1382 16.5783 13.4219 17.8621 14.9999 17.8621C16.5779 17.8621 17.8616 16.5783 17.8616 15.0004C17.8616 13.4224 16.5779 12.1387 14.9999 12.1387Z" fill="#718EBF"/>
</g>
<defs>
<clipPath id="clip0_253_61823">
<rect width="18" height="18" fill="white" transform="translate(6 6)"/>
</clipPath>
</defs>
</svg>
