<svg width="71" height="70" viewBox="0 0 71 70" fill="none" xmlns="http://www.w3.org/2000/svg">
<ellipse cx="35.4109" cy="35" rx="35.1892" ry="35" fill="#E7EDFF"/>
<path d="M38.1125 34.843C42.2268 34.843 45.5735 31.5137 45.5735 27.4215C45.5735 23.3293 42.2268 20 38.1125 20C33.9982 20 30.6509 23.3293 30.6509 27.4215C30.6509 31.5137 33.9982 34.843 38.1125 34.843ZM37.2288 23.0592V22.8576C37.2288 22.3719 37.6241 21.9787 38.1125 21.9787C38.6003 21.9787 38.9962 22.3719 38.9962 22.8576V23.0604C40.0477 23.2848 40.8389 24.2164 40.8389 25.3285C40.8389 25.8137 40.443 26.2074 39.9552 26.2074C39.4669 26.2074 39.0716 25.8137 39.0716 25.3285C39.0716 25.0186 38.8177 24.766 38.506 24.766H37.7137C37.402 24.766 37.1481 25.0186 37.1481 25.3285C37.1481 25.5061 37.2336 25.6748 37.3773 25.7803L38.1125 26.3217L39.8987 27.6365C40.4854 28.0684 40.8389 28.7592 40.8436 29.4858V29.494C40.8477 30.1139 40.6091 30.6987 40.1708 31.1399C39.8457 31.4674 39.4392 31.6871 38.9962 31.7797V31.9854C38.9962 32.4711 38.6003 32.8643 38.1125 32.8643C37.6241 32.8643 37.2288 32.4711 37.2288 31.9854V31.7827C36.7976 31.6912 36.4011 31.4803 36.0807 31.1651C35.6371 30.7297 35.3908 30.1485 35.3873 29.5285C35.3844 29.0434 35.7773 28.6473 36.2651 28.6444H36.271C36.7564 28.6444 37.1517 29.0346 37.1546 29.518C37.1558 29.8213 37.4012 30.077 37.7231 30.077C38.2114 30.0741 38.0295 30.0751 38.5143 30.0723C38.8279 30.0698 39.0787 29.8167 39.0763 29.5057V29.4975C39.0751 29.3217 38.9897 29.1541 38.8471 29.0492L38.1125 28.5084L36.3257 27.1936C35.7343 26.7576 35.3808 26.0604 35.3808 25.3285C35.3808 24.2141 36.1743 23.2818 37.2288 23.0592Z" fill="#396AFF"/>
<path d="M26.0229 39.0659C25.7964 38.6753 25.2933 38.5394 24.8982 38.7661L20.7415 41.1526C20.348 41.3792 20.2129 41.8799 20.4402 42.2719L24.6884 49.5904C24.9158 49.9817 25.4189 50.1162 25.8132 49.8902L29.9698 47.503C30.364 47.277 30.4985 46.7763 30.2712 46.3843L26.0229 39.0659Z" fill="#396AFF"/>
<path d="M49.8399 37.6061C49.4399 37.0535 48.6658 36.9287 48.1109 37.3266C46.4272 38.533 43.1942 40.8498 42.9374 41.0344C42.819 41.1346 42.6947 41.2254 42.5651 41.3057C42.0567 41.6238 41.467 41.7938 40.8513 41.7938H36.6186C36.1308 41.7938 35.735 41.4006 35.735 40.9149C35.735 40.4285 36.1314 40.0359 36.6186 40.0359H41.1453C41.8104 40.0359 42.343 39.4852 42.3153 38.8225C42.2894 38.1938 41.7497 37.7063 41.117 37.7063H37.6713C37.4381 37.4607 37.1824 37.2357 36.9085 37.0348C35.9665 36.3439 34.8024 35.9355 33.5423 35.9355C31.3019 35.9355 29.0727 37.3395 28.1484 39.2133L31.7632 45.4401H38.5438C39.8752 45.4401 41.1865 45.1014 42.3406 44.441C42.7406 44.2125 43.1689 43.9377 43.6331 43.6061C45.5783 42.2162 49.5554 39.3287 49.5583 39.327C50.1145 38.9297 50.2405 38.1586 49.8399 37.6061Z" fill="#396AFF"/>
</svg>
