<svg width="71" height="70" viewBox="0 0 71 70" fill="none" xmlns="http://www.w3.org/2000/svg">
<ellipse cx="35.1892" cy="35" rx="35.1892" ry="35" fill="#DCFAF8"/>
<path fill-rule="evenodd" clip-rule="evenodd" d="M27.3452 23.783C27.3452 23.4356 30.9361 21 34.5016 21C38.0671 21 41.658 23.4356 41.658 23.783C41.658 25.0235 41.526 25.7582 41.4147 26.1582C41.3407 26.4206 41.095 26.5661 40.8223 26.5661H28.1809C27.9082 26.5661 27.6625 26.4206 27.5885 26.1582C27.4772 25.7582 27.3452 25.0235 27.3452 23.783ZM33.3089 23.3855C33.098 23.3855 32.8957 23.4692 32.7466 23.6184C32.5975 23.7675 32.5137 23.9697 32.5137 24.1806C32.5137 24.3915 32.5975 24.5938 32.7466 24.7429C32.8957 24.892 33.098 24.9758 33.3089 24.9758H35.6943C35.9052 24.9758 36.1075 24.892 36.2566 24.7429C36.4057 24.5938 36.4895 24.3915 36.4895 24.1806C36.4895 23.9697 36.4057 23.7675 36.2566 23.6184C36.1075 23.4692 35.9052 23.3855 35.6943 23.3855H33.3089ZM28.1706 31.5104C25.5227 30.6913 26.1906 29.2283 27.2005 28.1564H42.0238C42.8316 29.1885 43.265 30.5808 40.8231 31.4141C40.8496 31.65 40.8628 31.8894 40.8628 32.1322C40.8625 32.9935 40.6872 33.8459 40.3476 34.6375C40.008 35.4291 39.5112 36.1435 38.8873 36.7373C38.2634 37.3312 37.5254 37.7922 36.718 38.0923C35.9106 38.3924 35.0507 38.5254 34.1903 38.4833C33.33 38.4411 32.4872 38.2247 31.713 37.8471C30.9388 37.4695 30.2494 36.9386 29.6865 36.2866C29.1236 35.6346 28.699 34.875 28.4384 34.054C28.1778 33.233 28.0867 32.3676 28.1706 31.5104ZM34.2853 32.1322C36.3861 32.1322 38.0146 32.0208 39.263 31.8268C39.2693 31.9275 39.2725 32.0293 39.2725 32.1322C39.272 32.7689 39.144 33.399 38.896 33.9855C38.6481 34.572 38.2853 35.1029 37.8291 35.547C37.3728 35.9911 36.8322 36.3393 36.2392 36.5712C35.6462 36.8031 35.0128 36.914 34.3763 36.8972C33.7398 36.8805 33.1131 36.7366 32.5331 36.4739C31.9531 36.2111 31.4316 35.835 30.9992 35.3676C30.5669 34.9002 30.2325 34.3509 30.0157 33.7523C29.7989 33.1536 29.7042 32.5176 29.737 31.8817C30.9003 32.0423 32.3912 32.1322 34.2853 32.1322ZM41.1944 43.7414C40.4753 42.6192 39.4853 41.696 38.3157 41.0568C37.1461 40.4176 35.8345 40.0829 34.5016 40.0837C33.1682 40.0827 31.8559 40.4174 30.6859 41.0569C29.5158 41.6964 28.5256 42.6202 27.8064 43.743C27.5389 43.3324 27.1291 43.0351 26.6558 42.9081L25.1196 42.497C24.6104 42.3605 24.0678 42.4318 23.6112 42.6953C23.1546 42.9588 22.8214 43.3929 22.6848 43.9021L22.0678 46.2064C22.0002 46.4586 21.9829 46.7216 22.017 46.9805C22.0511 47.2393 22.1358 47.4889 22.2664 47.715C22.3969 47.9411 22.5707 48.1392 22.7779 48.2982C22.985 48.4571 23.2214 48.5736 23.4736 48.6412L25.009 49.0531C25.2673 49.1223 25.537 49.1386 25.8017 49.1012C26.0665 49.0638 26.321 48.9733 26.55 48.8352C26.5507 49.0461 26.6351 49.2481 26.7846 49.3968C26.9342 49.5454 27.1367 49.6286 27.3476 49.628C27.5585 49.6273 27.7605 49.543 27.9091 49.3934C28.0578 49.2438 28.141 49.0413 28.1403 48.8304V48.0353C28.1403 47.732 28.161 47.4344 28.2024 47.1423L32.3404 48.2516C32.5324 48.6627 32.8378 49.0105 33.2206 49.2542C33.6034 49.4979 34.0478 49.6273 34.5016 49.6273C34.9554 49.6273 35.3998 49.4979 35.7826 49.2542C36.1654 49.0105 36.4707 48.6627 36.6628 48.2516L40.8008 47.1423C40.8416 47.4344 40.8623 47.732 40.8628 48.0353V48.8304C40.8618 49.0413 40.9445 49.244 41.0929 49.3939C41.2413 49.5437 41.4431 49.6285 41.654 49.6296C41.8649 49.6306 42.0676 49.5478 42.2174 49.3995C42.3673 49.2511 42.4521 49.0493 42.4531 48.8384C42.8984 49.1055 43.4487 49.1986 43.9902 49.0531L45.5264 48.642C45.7786 48.5744 46.015 48.4579 46.2221 48.2989C46.4293 48.14 46.6031 47.9419 46.7336 47.7158C46.8642 47.4897 46.9489 47.2401 46.983 46.9812C47.0171 46.7224 46.9998 46.4594 46.9322 46.2072L46.3144 43.9029C46.1778 43.3937 45.8446 42.9596 45.388 42.6961C44.9314 42.4326 44.3888 42.3613 43.8796 42.4978L42.3434 42.9089C41.8712 43.0354 41.4621 43.3323 41.1944 43.7414ZM28.6198 45.6069C29.0496 44.5683 29.7466 43.6619 30.64 42.9799C31.5333 42.2978 32.5913 41.8643 33.7064 41.7233V44.9906C33.3499 45.1166 33.0284 45.3256 32.7684 45.6003C32.5085 45.875 32.3176 46.2076 32.2115 46.5706L28.6198 45.6069ZM40.3834 45.6069C39.9536 44.5683 39.2566 43.6619 38.3632 42.9799C37.4698 42.2978 36.4119 41.8643 35.2967 41.7233V44.9906C36.0156 45.2451 36.5769 45.8335 36.7916 46.5706L40.3834 45.6069ZM34.5016 48.0353C34.7125 48.0353 34.9147 47.9515 35.0639 47.8024C35.213 47.6533 35.2967 47.451 35.2967 47.2401C35.2967 47.0292 35.213 46.827 35.0639 46.6779C34.9147 46.5287 34.7125 46.445 34.5016 46.445C34.2907 46.445 34.0885 46.5287 33.9393 46.6779C33.7902 46.827 33.7064 47.0292 33.7064 47.2401C33.7064 47.451 33.7902 47.6533 33.9393 47.8024C34.0885 47.9515 34.2907 48.0353 34.5016 48.0353Z" fill="#16DBCC"/>
</svg>
