<svg width="71" height="70" viewBox="0 0 71 70" fill="none" xmlns="http://www.w3.org/2000/svg">
<ellipse cx="35.1892" cy="35" rx="35.1892" ry="35" fill="#FFF5D9"/>
<path d="M33.3333 28C33.3333 30.7614 31.0947 33 28.3333 33C25.5718 33 23.3333 30.7614 23.3333 28C23.3333 25.2386 25.5718 23 28.3333 23C31.0947 23 33.3333 25.2386 33.3333 28Z" fill="#FFBB38"/>
<path d="M46.6668 28C46.6668 30.7614 44.4283 33 41.6668 33C38.9053 33 36.6667 30.7614 36.6667 28C36.6667 25.2386 38.9053 23 41.6668 23C44.4283 23 46.6668 25.2386 46.6668 28Z" fill="#FFBB38"/>
<path d="M39.8819 46.334C39.9598 45.7897 40.0001 45.2332 40.0001 44.6673C40.0001 41.942 39.0656 39.435 37.4998 37.4492C38.7254 36.7398 40.1488 36.334 41.6668 36.334C46.2691 36.334 50.0001 40.065 50.0001 44.6673V46.334H39.8819Z" fill="#FFBB38"/>
<path d="M28.3334 36.334C32.9357 36.334 36.6667 40.065 36.6667 44.6673V46.334H20V44.6673C20 40.065 23.731 36.334 28.3334 36.334Z" fill="#FFBB38"/>
</svg>
