<svg width="20" height="20" viewBox="0 0 20 20" fill="none" xmlns="http://www.w3.org/2000/svg">
<g clip-path="url(#clip0_127_786)">
<path d="M17.5 16.4609C17.5 14.7193 16.1083 12.2376 14.1667 11.6884M12.5 16.4609C12.5 14.2518 10.2617 11.4609 7.5 11.4609C4.73833 11.4609 2.5 14.2518 2.5 16.4609" stroke="#0079FF" stroke-width="1.5" stroke-linecap="round" stroke-linejoin="round"/>
<path d="M7.5 8.54297C8.88071 8.54297 10 7.42368 10 6.04297C10 4.66226 8.88071 3.54297 7.5 3.54297C6.11929 3.54297 5 4.66226 5 6.04297C5 7.42368 6.11929 8.54297 7.5 8.54297Z" stroke="#0079FF" stroke-width="1.5" stroke-linecap="round" stroke-linejoin="round"/>
<path d="M12.5 8.54297C13.163 8.54297 13.7989 8.27958 14.2678 7.81074C14.7366 7.34189 15 6.70601 15 6.04297C15 5.37993 14.7366 4.74404 14.2678 4.2752C13.7989 3.80636 13.163 3.54297 12.5 3.54297" stroke="#0079FF" stroke-width="1.5" stroke-linecap="round" stroke-linejoin="round"/>
</g>
<defs>
<clipPath id="clip0_127_786">
<rect width="20" height="20" fill="white"/>
</clipPath>
</defs>
</svg>
